# xmcd CD database file
#
# Track frame offsets:
#	150
#	7368
#	27882
#	43907
#	68612
#	86365
#	105668
#	125149
#	146903
#	165592
#	185834
#	202962
#	222171
#
# Disc length: 3318 seconds
#
# Revision: 0
# Processed by: cddbd v1.5.2PL0 Copyright (c) Steve Scherf et al.
# Submitted via: CDex 1.70beta2
#
DISCID=c00cf40d
DTITLE=Paul Hardcastle - JAZZMASTERS 6
DYEAR=2010
DGENRE=Jazz
TTITLE0=Awakening Thoughts
TTITLE1=Touch and Go
TTITLE2=One Chance EDIT
TTITLE3=Cloud Watching
TTITLE4=I Really Like
TTITLE5=Solar Sky
TTITLE6=Final Cant Get By
TTITLE7=In the Key Of Time
TTITLE8=Vision eqwd normal
TTITLE9=Dimensions of Light 
TTITLE10=So in to you
TTITLE11=Return of the Rainman  reprise  
TTITLE12=One Chance Long version
EXTD=YEAR: 2010
EXTT0=
EXTT1=
EXTT2=
EXTT3=
EXTT4=
EXTT5=
EXTT6=
EXTT7=
EXTT8=
EXTT9=
EXTT10=
EXTT11=
EXTT12=
PLAYORDER=
